<!--
Icons By FontAwesome
license: CC BY 4.0 - https://fontawesome.com/license/free
-->
<svg aria-hidden="true" focusable="false" data-prefix="fas" data-icon="expand" class="svg-inline--fa fa-expand fa-w-14"
     role="img" xmlns="http://www.w3.org/2000/svg" viewBox="0 0 512 512">

  <!--available: https://fontawesome.com/icons/expand?style=solid-->
  <path fill="currentColor" id="expand"
        d="M0 180V56c0-13.3 10.7-24 24-24h124c6.6 0 12 5.4 12 12v40c0 6.6-5.4 12-12 12H64v84c0 6.6-5.4 12-12 12H12c-6.6 0-12-5.4-12-12zM288 44v40c0 6.6 5.4 12 12 12h84v84c0 6.6 5.4 12 12 12h40c6.6 0 12-5.4 12-12V56c0-13.3-10.7-24-24-24H300c-6.6 0-12 5.4-12 12zm148 276h-40c-6.6 0-12 5.4-12 12v84h-84c-6.6 0-12 5.4-12 12v40c0 6.6 5.4 12 12 12h124c13.3 0 24-10.7 24-24V332c0-6.6-5.4-12-12-12zM160 468v-40c0-6.6-5.4-12-12-12H64v-84c0-6.6-5.4-12-12-12H12c-6.6 0-12 5.4-12 12v124c0 13.3 10.7 24 24 24h124c6.6 0 12-5.4 12-12z"></path>

  <!--available: https://fontawesome.com/icons/plus-square?style=regular-->
  <path fill="currentColor" id="plus-square-regular"
        d="M352 240v32c0 6.6-5.4 12-12 12h-88v88c0 6.6-5.4 12-12 12h-32c-6.6 0-12-5.4-12-12v-88h-88c-6.6 0-12-5.4-12-12v-32c0-6.6 5.4-12 12-12h88v-88c0-6.6 5.4-12 12-12h32c6.6 0 12 5.4 12 12v88h88c6.6 0 12 5.4 12 12zm96-160v352c0 26.5-21.5 48-48 48H48c-26.5 0-48-21.5-48-48V80c0-26.5 21.5-48 48-48h352c26.5 0 48 21.5 48 48zm-48 346V86c0-3.3-2.7-6-6-6H54c-3.3 0-6 2.7-6 6v340c0 3.3 2.7 6 6 6h340c3.3 0 6-2.7 6-6z"></path>

  <!--Icon By FontAwesome - modified by Yusuf Ades
  available: https://fontawesome.com/icons//plus-circle?style=solid-->
  <path fill="currentColor" id="plus-circle-solid"
        d="M223.9,32.1C100.2,32.1,0,132.3,0,256s100.2,223.9,223.9,223.9S447.9,379.7,447.9,256S347.7,32.1,223.9,32.1z M354,281.2
	c0,6-4.9,10.8-10.8,10.8H260v83.2c0,6-4.9,10.8-10.8,10.8h-50.3c-6,0-10.8-4.9-10.8-10.8V292h-83.2c-6,0-10.8-4.9-10.8-10.8v-50.3
	c0-6,4.9-10.8,10.8-10.8H188v-83.2c0-6,4.9-10.8,10.8-10.8h50.3c6,0,10.8,4.9,10.8,10.8V220h83.2c6,0,10.8,4.9,10.8,10.8V281.2z"></path>

  <!--Icon By FontAwesome - modified by Yusuf Ades
  available: https://fontawesome.com/icons/plus-square?style=solid-->
  <path fill="currentColor" id="plus-rect-solid"
        d="M448,32H0v448h448V32z M368,284c0,6.6-5.4,12-12,12h-92v92c0,6.6-5.4,12-12,12h-56c-6.6,0-12-5.4-12-12v-92H92
	c-6.6,0-12-5.4-12-12v-56c0-6.6,5.4-12,12-12h92v-92c0-6.6,5.4-12,12-12h56c6.6,0,12,5.4,12,12v92h92c6.6,0,12,5.4,12,12V284z"></path>
  <!--Icon By FontAwesome - modified by Yusuf Ades
  available: https://fontawesome.com/icons/plus-square?style=solid-->
  <path fill="currentColor" id="plus-capsule-solid"
        d="M306.4,32H141.7C63.4,32,0,95.4,0,173.7v164.5C0,416.5,63.5,480,141.7,480h164.5c78.3,0,141.7-63.5,141.7-141.7V173.7
	C448.1,95.5,384.6,32,306.4,32z M368,284c0,6.6-5.4,12-12,12h-92v92c0,6.6-5.4,12-12,12h-56c-6.6,0-12-5.4-12-12v-92H92
	c-6.6,0-12-5.4-12-12v-56c0-6.6,5.4-12,12-12h92v-92c0-6.6,5.4-12,12-12h56c6.6,0,12,5.4,12,12v92h92c6.6,0,12,5.4,12,12V284z"></path>

  <!--Icon By FontAwesome - modified by Yusuf Ades
  available: https://fontawesome.com/icons//plus-circle?style=solid-->
  <path fill="currentColor" id="circle-solid"
        d="M223.9,32.1C100.2,32.1,0,132.3,0,256s100.2,223.9,223.9,223.9S447.9,379.7,447.9,256S347.7,32.1,223.9,32.1z"></path>

  <!--Icon By FontAwesome - modified by Yusuf Ades
  available: https://fontawesome.com/icons/plus-square?style=solid-->
  <path fill="currentColor" id="rect-solid"
        d="M448,32H0v448h448V32z"></path>
  <!--Icon By FontAwesome - modified by Yusuf Ades
  available: https://fontawesome.com/icons/plus-square?style=solid-->
  <path fill="currentColor" id="capsule-solid"
        d="M306.4,32H141.7C63.4,32,0,95.4,0,173.7v164.5C0,416.5,63.5,480,141.7,480h164.5c78.3,0,141.7-63.5,141.7-141.7V173.7
	C448.1,95.5,384.6,32,306.4,32z"></path>

 <!-- new icons -->
   <path fill="currentColor" id="file"
        d="M296.649 154.226 245.846 52.62-32.362 52.62C-61.393 52.62-83.165 74.393-83.165 103.423L-83.165 560.652C-83.165 589.682-61.393 611.455-32.362 611.455L603.887 611.455C630.499 611.455 654.691 589.682 654.691 560.652L654.691 205.029C654.691 175.999 630.499 154.226 603.887 154.226L296.649 154.226 296.649 154.226ZM282.134 178.418 231.331 76.812-32.362 76.812C-46.877 76.812-58.973 88.908-58.973 103.423L-58.973 560.652C-58.973 575.167-46.877 587.263-32.362 587.263L603.887 587.263C618.403 587.263 628.079 575.167 628.079 560.652L628.079 205.029C628.079 190.514 615.983 178.418 603.887 178.418L282.134 178.418 282.134 178.418Z"></path>   
  
  <path fill="currentColor" id="capsule-comment"
        d="M42.719 89.051H376.428C399.643 89.051 418.504 107.913 418.504 129.677V360.371C418.504 382.135 399.643 400.997 376.428 400.997H177.654L110.912 474.993C109.461 476.444 108.01 477.895 105.108 477.895 105.108 477.895 103.657 477.895 103.657 477.895 100.755 476.444 99.305 473.542 99.305 470.64V400.997H42.719C20.956 400.997 2.094 382.135 2.094 360.371L2.094 129.677C2.094 107.913 20.956 89.051 42.719 89.051Z"></path>

  <path fill="#C33039" id="rect-hexagon"
        d="M-.856 248.244 106.955 61.371 322.577 61.371 430.388 248.244 322.577 435.116 106.955 435.116Z"></path>

  <path fill="#FFECA8" id="circle-ellipse"
        d="M306.4,32H141.7C63.4,32,0,95.4,0,173.7v164.5C0,416.5,63.5,480,141.7,480h164.5c78.3,0,141.7-63.5,141.7-141.7V173.7
	C448.1,95.5,384.6,32,306.4,32z"></path>

   <path fill="#A3D977" id="green_circle"
        d="M204.8 0C91.87 0 0 91.87 0 204.8s91.87 204.8 204.8 204.8 204.8-91.87 204.8-204.8S317.73 0 204.8 0z"></path>

  <path fill="" id="diamond"
        d="m142.660156 434.253906c1.484375 2.222656 3.976563 3.554688 6.648438 3.554688s5.164062-1.332032 6.648437-3.554688l140.914063-210.90625c1.796875-2.691406 1.796875-6.199218 0-8.886718l-140.910156-210.90625c-1.484376-2.222657-3.976563-3.554688-6.648438-3.554688s-5.164062 1.332031-6.648438 3.554688l-140.914062 210.90625c-1.796875 2.6875-1.796875 6.195312 0 8.886718zm6.652344-411.851562 131.28125 196.5-131.28125 196.507812-131.285156-196.507812zm0 0"></path>

  <path fill="#ff0000" id="red_circle"
        d="m387.656 307.2-110.656 0 0-44.8 110.656 0a179.2 179.2 0 0 0-155.456-155.456l0 110.656-44.8 0 0-110.656a179.2 179.2 0 0 0-155.456 155.456l110.656 0 0 44.8-110.656 0a179.2 179.2 0 0 0 155.456 155.456l0-110.656 44.8 0 0 110.656a179.2 179.2 0 0 0 155.456-155.456zm-177.856 201.6a224 224 0 1 1 0-448 224 224 0 0 1 0 448z"></path>

  <path fill="#f39f4d" id="alert"
        d="m447.7 398.2-206.6-349.5c-2.9-5-8.3-8.7-14.1-8.7-5.9 0-11.3 3.7-14.1 8.7l-206.6 349.5c-2.8 5-4.8 13-1.9 17.9 2.9 4.9 8.2 7.9 14 7.9l417.1 0c5.8 0 11.1-3 14-7.9 3-4.9 1-13-1.8-17.9zm-188.7-22.2-64 0 0-48 64 0 0 48zm0-80-64 0 0-144 64 0 0 144z"></path>

  <path fill="#41AD49" id="tick"
        d="M460.83 273.062c0-118.776-96.264-215.04-215.04-215.04S30.75 154.286 30.75 273.062s96.264 215.04 215.04 215.04S460.83 391.838 460.83 273.062L460.83 273.062zM410.178 189.314l-202.44 202.44 0 0-14.448 14.448L81.402 294.314l49.392-49.392 62.58 62.58 167.496-167.496L410.178 189.314 410.178 189.314z"></path>

  <path fill="#c7e8ac" id="technique"
        d="M82.607 136.255h283.853l94.618 101.376-94.618 101.376H82.607L-12.011 237.631z"></path> 

  <path fill="#157EFB" id="report" 
      d="M192 52.773 192 36.739C192 19.145 206.362 4.773 224.078 4.773L239.922 4.773C257.698 4.773 272 19.085 272 36.739L272 52.773 304.07 52.773C312.882 52.773 320 59.929 320 68.757L320 84.789C320 93.691 312.868 100.773 304.07 100.773L159.93 100.773C151.118 100.773 144 93.617 144 84.789L144 68.757C144 59.855 151.132 52.773 159.93 52.773L192 52.773 192 52.773ZM176 36.773 160.044 36.773C142.372 36.773 128.042 51.033 128 68.773L111.958 68.773C94.308 68.773 80 83.009 80 100.831L80 436.715C80 454.421 94.254 468.773 111.958 468.773L352.042 468.773C369.692 468.773 384 454.537 384 436.715L384 100.831C384 83.125 369.746 68.773 352.042 68.773L336 68.773 336 68.773C335.958 51.093 321.678 36.773 303.956 36.773L288 36.773C287.986 10.261 266.396-11.227 239.852-11.227L224.148-11.227C197.566-11.227 176.014 10.183 176 36.773L176 36.773 176 36.773ZM336 84.773 352 84.773C360.724 84.773 368 91.959 368 100.823L368 436.723C368 445.751 360.836 452.773 352 452.773L112 452.773C103.276 452.773 96 445.587 96 436.723L96 100.823C96 91.795 103.164 84.773 112 84.773L128 84.773C128.042 102.453 142.322 116.773 160.044 116.773L303.956 116.773C321.628 116.773 335.958 102.513 336 84.773L336 84.773 336 84.773ZM232 52.773C236.418 52.773 240 49.191 240 44.773 240 40.355 236.418 36.773 232 36.773 227.582 36.773 224 40.355 224 44.773 224 49.191 227.582 52.773 232 52.773L232 52.773Z"></path>

  <!-- <path fill="" id="data" d=""></path> -->
  <path fill="" id="code_file" d="M452.228 128.036q6.72 6.72 11.52 18.24t4.8 21.12v276.48q0 9.6-6.72 16.32t-16.32 6.72h-322.56q-9.6 0-16.32-6.72t-6.72-16.32v-384q0-9.6 6.72-16.32t16.32-6.72h215.04q9.6 0 21.12 4.8t18.24 11.52zm-106.56-58.56v90.24h90.24q-2.4-6.96-5.28-9.84l-75.12-75.12q-2.88-2.88-9.84-5.28zm92.16 366.72v-245.76h-99.84q-9.6 0-16.32-6.72t-6.72-16.32v-99.84h-184.32v368.64h307.2z"></path>
  <!-- <path fill="" id="multi_data" d=""></path> -->
  <path fill="#a8a8a8" id="information" d="M30.188 114.57h403.2v206.4H30.188z"></path>

</svg>
