<!--
Icons By FontAwesome
license: CC BY 4.0 - https://fontawesome.com/license/free
-->
<svg aria-hidden="true" focusable="false" data-prefix="fas" data-icon="expand" class="svg-inline--fa fa-expand fa-w-14"
     role="img" xmlns="http://www.w3.org/2000/svg" viewBox="0 0 512 512">

  <!--available: https://fontawesome.com/icons/expand?style=solid-->
  <path fill="currentColor" id="expand"
        d="M0 180V56c0-13.3 10.7-24 24-24h124c6.6 0 12 5.4 12 12v40c0 6.6-5.4 12-12 12H64v84c0 6.6-5.4 12-12 12H12c-6.6 0-12-5.4-12-12zM288 44v40c0 6.6 5.4 12 12 12h84v84c0 6.6 5.4 12 12 12h40c6.6 0 12-5.4 12-12V56c0-13.3-10.7-24-24-24H300c-6.6 0-12 5.4-12 12zm148 276h-40c-6.6 0-12 5.4-12 12v84h-84c-6.6 0-12 5.4-12 12v40c0 6.6 5.4 12 12 12h124c13.3 0 24-10.7 24-24V332c0-6.6-5.4-12-12-12zM160 468v-40c0-6.6-5.4-12-12-12H64v-84c0-6.6-5.4-12-12-12H12c-6.6 0-12 5.4-12 12v124c0 13.3 10.7 24 24 24h124c6.6 0 12-5.4 12-12z"></path>

  <!--available: https://fontawesome.com/icons/plus-square?style=regular-->
  <path fill="currentColor" id="plus-square-regular"
        d="M352 240v32c0 6.6-5.4 12-12 12h-88v88c0 6.6-5.4 12-12 12h-32c-6.6 0-12-5.4-12-12v-88h-88c-6.6 0-12-5.4-12-12v-32c0-6.6 5.4-12 12-12h88v-88c0-6.6 5.4-12 12-12h32c6.6 0 12 5.4 12 12v88h88c6.6 0 12 5.4 12 12zm96-160v352c0 26.5-21.5 48-48 48H48c-26.5 0-48-21.5-48-48V80c0-26.5 21.5-48 48-48h352c26.5 0 48 21.5 48 48zm-48 346V86c0-3.3-2.7-6-6-6H54c-3.3 0-6 2.7-6 6v340c0 3.3 2.7 6 6 6h340c3.3 0 6-2.7 6-6z"></path>

  <!--Icon By FontAwesome - modified by Yusuf Ades
  available: https://fontawesome.com/icons//plus-circle?style=solid-->
  <path fill="currentColor" id="plus-circle-solid"
        d="M223.9,32.1C100.2,32.1,0,132.3,0,256s100.2,223.9,223.9,223.9S447.9,379.7,447.9,256S347.7,32.1,223.9,32.1z M354,281.2
	c0,6-4.9,10.8-10.8,10.8H260v83.2c0,6-4.9,10.8-10.8,10.8h-50.3c-6,0-10.8-4.9-10.8-10.8V292h-83.2c-6,0-10.8-4.9-10.8-10.8v-50.3
	c0-6,4.9-10.8,10.8-10.8H188v-83.2c0-6,4.9-10.8,10.8-10.8h50.3c6,0,10.8,4.9,10.8,10.8V220h83.2c6,0,10.8,4.9,10.8,10.8V281.2z"></path>

  <!--Icon By FontAwesome - modified by Yusuf Ades
  available: https://fontawesome.com/icons/plus-square?style=solid-->
  <path fill="currentColor" id="plus-rect-solid"
        d="M448,32H0v448h448V32z M368,284c0,6.6-5.4,12-12,12h-92v92c0,6.6-5.4,12-12,12h-56c-6.6,0-12-5.4-12-12v-92H92
	c-6.6,0-12-5.4-12-12v-56c0-6.6,5.4-12,12-12h92v-92c0-6.6,5.4-12,12-12h56c6.6,0,12,5.4,12,12v92h92c6.6,0,12,5.4,12,12V284z"></path>
  <!--Icon By FontAwesome - modified by Yusuf Ades
  available: https://fontawesome.com/icons/plus-square?style=solid-->
  <path fill="currentColor" id="plus-capsule-solid"
        d="M306.4,32H141.7C63.4,32,0,95.4,0,173.7v164.5C0,416.5,63.5,480,141.7,480h164.5c78.3,0,141.7-63.5,141.7-141.7V173.7
	C448.1,95.5,384.6,32,306.4,32z M368,284c0,6.6-5.4,12-12,12h-92v92c0,6.6-5.4,12-12,12h-56c-6.6,0-12-5.4-12-12v-92H92
	c-6.6,0-12-5.4-12-12v-56c0-6.6,5.4-12,12-12h92v-92c0-6.6,5.4-12,12-12h56c6.6,0,12,5.4,12,12v92h92c6.6,0,12,5.4,12,12V284z"></path>

  <!--Icon By FontAwesome - modified by Yusuf Ades
  available: https://fontawesome.com/icons//plus-circle?style=solid-->
  <path fill="currentColor" id="circle-solid"
        d="M223.9,32.1C100.2,32.1,0,132.3,0,256s100.2,223.9,223.9,223.9S447.9,379.7,447.9,256S347.7,32.1,223.9,32.1z"></path>

  <!--Icon By FontAwesome - modified by Yusuf Ades
  available: https://fontawesome.com/icons/plus-square?style=solid-->
  <path fill="currentColor" id="rect-solid"
        d="M448,32H0v448h448V32z"></path>
  <!--Icon By FontAwesome - modified by Yusuf Ades
  available: https://fontawesome.com/icons/plus-square?style=solid-->
  <path fill="currentColor" id="capsule-solid"
        d="M306.4,32H141.7C63.4,32,0,95.4,0,173.7v164.5C0,416.5,63.5,480,141.7,480h164.5c78.3,0,141.7-63.5,141.7-141.7V173.7
	C448.1,95.5,384.6,32,306.4,32z"></path>

 <!-- new icons -->
   <path fill="currentColor" id="file"
        d="M296.649 154.226 245.846 52.62-32.362 52.62C-61.393 52.62-83.165 74.393-83.165 103.423L-83.165 560.652C-83.165 589.682-61.393 611.455-32.362 611.455L603.887 611.455C630.499 611.455 654.691 589.682 654.691 560.652L654.691 205.029C654.691 175.999 630.499 154.226 603.887 154.226L296.649 154.226 296.649 154.226ZM282.134 178.418 231.331 76.812-32.362 76.812C-46.877 76.812-58.973 88.908-58.973 103.423L-58.973 560.652C-58.973 575.167-46.877 587.263-32.362 587.263L603.887 587.263C618.403 587.263 628.079 575.167 628.079 560.652L628.079 205.029C628.079 190.514 615.983 178.418 603.887 178.418L282.134 178.418 282.134 178.418Z"></path>   
  
  <path fill="currentColor" id="capsule-comment"
        d="M42.719 89.051H376.428C399.643 89.051 418.504 107.913 418.504 129.677V360.371C418.504 382.135 399.643 400.997 376.428 400.997H177.654L110.912 474.993C109.461 476.444 108.01 477.895 105.108 477.895 105.108 477.895 103.657 477.895 103.657 477.895 100.755 476.444 99.305 473.542 99.305 470.64V400.997H42.719C20.956 400.997 2.094 382.135 2.094 360.371L2.094 129.677C2.094 107.913 20.956 89.051 42.719 89.051Z"></path>

  <path fill="#C33039" id="rect-hexagon"
        d="M-.856 248.244 106.955 61.371 322.577 61.371 430.388 248.244 322.577 435.116 106.955 435.116Z"></path>

  <path fill="#FFECA8" id="circle-ellipse"
        d="M306.4,32H141.7C63.4,32,0,95.4,0,173.7v164.5C0,416.5,63.5,480,141.7,480h164.5c78.3,0,141.7-63.5,141.7-141.7V173.7
	C448.1,95.5,384.6,32,306.4,32z"></path>

   <path fill="#A3D977" id="green_circle"
        d="M256,0C114.837,0,0,114.837,0,256s114.837,256,256,256s256-114.837,256-256S397.163,0,256,0z"></path>

  <path fill="" id="diamond"
        d="m142.660156 434.253906c1.484375 2.222656 3.976563 3.554688 6.648438 3.554688s5.164062-1.332032 6.648437-3.554688l140.914063-210.90625c1.796875-2.691406 1.796875-6.199218 0-8.886718l-140.910156-210.90625c-1.484376-2.222657-3.976563-3.554688-6.648438-3.554688s-5.164062 1.332031-6.648438 3.554688l-140.914062 210.90625c-1.796875 2.6875-1.796875 6.195312 0 8.886718zm6.652344-411.851562 131.28125 196.5-131.28125 196.507812-131.285156-196.507812zm0 0"></path>

</svg>
